<?xml version="1.0" encoding="UTF-8"?>
<svg width="104px" height="81px" viewBox="0 0 104 81" version="1.1" xmlns="http://www.w3.org/2000/svg" xmlns:xlink="http://www.w3.org/1999/xlink">
    <!-- Generator: Sketch 55.2 (78181) - https://sketchapp.com -->
    <title>Group 41</title>
    <desc>Created with Sketch.</desc>
    <g id="Page-1" stroke="none" stroke-width="1" fill="none" fill-rule="evenodd">
        <g id="Home-Copy-6" transform="translate(-414.000000, -774.000000)">
            <g id="Group-41" transform="translate(414.000000, 774.000000)">
                <g id="Group-40">
                    <polyline id="Path" stroke="#FAFAFA" stroke-width="0.5" opacity="0.305268787" points="102 19.8771754 96.3156133 21.1771297 85.4456866 29.4015401 74.086176 37.9963798 61.492817 57.6762767 57.7823259 64.5365532 52.7614993 68.0537 46.5168138 69.8166345 38.647667 72.3658373 29.8307042 72.073114 28.4881895 70.5535483 32.5664221 66.7192137 41.1632688 64.2499992 47.2512156 59.8063917 36.8400916 54.6757945 27.6895789 45.2327716 20.3839351 27.2538719 18.4045953 15.53859 7.5714658 13.8609622 2 8.96827126 9.01021885 9.6028596 13.5977038 9.27520773 18.0050062 7.72570217 20.3839351 5.30808899 28.8218715 3.66855609 31.8301467 2 31.2259743 6.89863371 25.0873121 12.8598489 29.8307042 18.6093981 35.8386127 24.7266361 42.5175733 30.6371993 55.9149461 33.4380295 58.0907934 33.9240293 71.6987624 30.9575636 73.7975852 27.9487647 78.571975 27.2538719 94.5481646 17.0216263 102 19.8771754 101.725718 21.7790262 99.2556746 23.394712 88.7112129 49.506709 80.7382412 54.6757945 79.3839256 61.8140202 73.4573625 73.0415577 64.570054 79 64.570054 75.3992759 68.4934174 70.2004278 69.9658998 60.0959213 69.2986811 58.6680072 58.8356986 62.6166203"></polyline>
                    <polyline id="Path-2" stroke="#FAFAFA" stroke-width="0.5" opacity="0.305268787" points="78.571975 27.2538719 85.4456866 29.4015401 73.7280145 37.7010723 71.8740162 31"></polyline>
                    <path d="M47.2512156,59.8063917 L46.5168138,69.8166345" id="Path-3" stroke="#FAFAFA" stroke-width="0.5" opacity="0.305268787"></path>
                    <polyline id="Path-4" stroke="#FAFAFA" stroke-width="0.5" opacity="0.305268787" points="61.492817 57.6762767 56.7719349 52.6832243 47 60"></polyline>
                    <polyline id="Path-5" stroke="#FAFAFA" stroke-width="0.5" opacity="0.305268787" points="56.7909511 52.7937028 58.7377265 47.3222118 73.7280145 37.7010723"></polyline>
                    <polygon id="Path-6" stroke="#FAFAFA" stroke-width="0.5" opacity="0.305268787" points="58.7377265 47.3222118 58.0907934 33.9240293 55.7198176 33.6363144 52 46.5349939"></polygon>
                    <polyline id="Path-7" stroke="#FAFAFA" stroke-width="0.5" opacity="0.305268787" points="85.4456866 29.4015401 79.2926115 39.5929836 88.7112129 49.506709"></polyline>
                    <path d="M79.2926115,39.5929836 L68.1634175,47.2262879" id="Path-8" stroke="#FAFAFA" stroke-width="0.5" opacity="0.305268787"></path>
                    <polyline id="Path-9" stroke="#FAFAFA" stroke-width="0.5" opacity="0.305268787" points="9.01021885 9.6028596 7.83722854 13.6876885 11.2538478 12.4941103 19.377005 13.6876885 17.307992 8 13.5977038 9.27520773 11.2538478 12.4941103"></polyline>
                    <polyline id="Path-10" stroke="#FAFAFA" stroke-width="0.5" opacity="0.305268787" points="28.8218715 3.66855609 31.2259743 6.89863371 20.3839351 5.30808899 18.0050062 7.72570217 25.0873121 12.8598489 29.8307042 18.6093981 23 22 19.377005 13.6876885"></polyline>
                    <polyline id="Path-11" stroke="#FAFAFA" stroke-width="0.5" opacity="0.305268787" points="23 22 26 27.6679742 20.3236897 27.5003169"></polyline>
                    <polyline id="Path-12" stroke="#FAFAFA" stroke-width="0.5" opacity="0.305268787" points="26 27.6679742 30.6399381 32.8067556 35.9795803 25 42.5 30.55892 43 44.6152656 36.8400916 54.6757945"></polyline>
                    <polyline id="Path-13" stroke="#FAFAFA" stroke-width="0.5" opacity="0.305268787" points="52 46.5349939 43 44.6152656 30.854031 33 27.6895789 45.2327716"></polyline>
                    <path d="M96.3156133,21.1771297 L94.5481646,17.0216263" id="Path-14" stroke="#FAFAFA" stroke-width="0.5" opacity="0.305268787"></path>
                    <g id="Group-39">
                        <g id="Group-38" transform="translate(1.000000, 1.000000)" fill="#FFFFFF" opacity="0.27469308">
                            <circle id="Oval" cx="31.3" cy="65.5" r="1"></circle>
                            <circle id="Oval" cx="67.3" cy="46.5" r="1"></circle>
                            <circle id="Oval" cx="77.3" cy="26" r="1"></circle>
                            <circle id="Oval" cx="70.5" cy="30" r="1"></circle>
                            <circle id="Oval" cx="54.3" cy="32.5" r="1"></circle>
                            <circle id="Oval" cx="93.3" cy="15.5" r="1"></circle>
                            <circle id="Oval" cx="101.3" cy="18.5" r="1"></circle>
                            <circle id="Oval" cx="98.3" cy="22.5" r="1"></circle>
                            <circle id="Oval" cx="78.3" cy="38.5" r="1"></circle>
                            <circle id="Oval" cx="87.3" cy="48.5" r="1"></circle>
                            <circle id="Oval" cx="79.3" cy="53.5" r="1"></circle>
                            <circle id="Oval" cx="78.3" cy="60.5" r="1"></circle>
                            <circle id="Oval" cx="71.5" cy="72.5" r="1"></circle>
                            <circle id="Oval" cx="63.3" cy="78.5" r="1"></circle>
                            <circle id="Oval" cx="66.5" cy="69.5" r="1"></circle>
                            <circle id="Oval" cx="68.3" cy="57.5" r="1"></circle>
                            <circle id="Oval" cx="57.8" cy="61.5" r="1"></circle>
                            <circle id="Oval" cx="55.8" cy="52" r="1"></circle>
                            <circle id="Oval" cx="45.8" cy="59" r="1"></circle>
                            <circle id="Oval" cx="45.3" cy="69" r="1"></circle>
                            <circle id="Oval" cx="27.3" cy="69.5" r="1"></circle>
                            <circle id="Oval" cx="35.8" cy="53.5" r="1"></circle>
                            <circle id="Oval" cx="41.3" cy="29.5" r="1"></circle>
                            <circle id="Oval" cx="26.3" cy="44" r="1"></circle>
                            <circle id="Oval" cx="34.8" cy="24" r="1"></circle>
                            <circle id="Oval" cx="19.3" cy="26.5" r="1"></circle>
                            <circle id="Oval" cx="28.3" cy="17.5" r="1"></circle>
                            <circle id="Oval" cx="17.3" cy="14.5" r="1"></circle>
                            <circle id="Oval" cx="23.8" cy="12" r="1"></circle>
                            <circle id="Oval" cx="30.8" cy="0.5" r="1"></circle>
                            <circle id="Oval" cx="30.3" cy="6" r="1"></circle>
                            <circle id="Oval" cx="19.3" cy="4.2" r="1"></circle>
                            <circle id="Oval" cx="16.5" cy="6.5" r="1"></circle>
                            <circle id="Oval" cx="6.3" cy="12.8" r="1"></circle>
                            <circle id="Oval" cx="0.5" cy="7.8" r="1"></circle>
                        </g>
                        <g id="Group-38" transform="translate(1.000000, 1.000000)" fill="#FFFFFF" opacity="0.311383929">
                            <circle id="Oval" cx="31.3" cy="65.5" r="1"></circle>
                            <circle id="Oval" cx="67.3" cy="46.5" r="1"></circle>
                            <circle id="Oval" cx="77.3" cy="26" r="1"></circle>
                            <circle id="Oval" cx="70.5" cy="30" r="1"></circle>
                            <circle id="Oval" cx="54.3" cy="32.5" r="1"></circle>
                            <circle id="Oval" cx="93.3" cy="15.5" r="1"></circle>
                            <circle id="Oval" cx="101.3" cy="18.5" r="1"></circle>
                            <circle id="Oval" cx="98.3" cy="22.5" r="1"></circle>
                            <circle id="Oval" cx="78.3" cy="38.5" r="1"></circle>
                            <circle id="Oval" cx="87.3" cy="48.5" r="1"></circle>
                            <circle id="Oval" cx="79.3" cy="53.5" r="1"></circle>
                            <circle id="Oval" cx="78.3" cy="60.5" r="1"></circle>
                            <circle id="Oval" cx="71.5" cy="72.5" r="1"></circle>
                            <circle id="Oval" cx="63.3" cy="78.5" r="1"></circle>
                            <circle id="Oval" cx="66.5" cy="69.5" r="1"></circle>
                            <circle id="Oval" cx="68.3" cy="57.5" r="1"></circle>
                            <circle id="Oval" cx="57.8" cy="61.5" r="1"></circle>
                            <circle id="Oval" cx="55.8" cy="52" r="1"></circle>
                            <circle id="Oval" cx="45.8" cy="59" r="1"></circle>
                            <circle id="Oval" cx="45.3" cy="69" r="1"></circle>
                            <circle id="Oval" cx="27.3" cy="69.5" r="1"></circle>
                            <circle id="Oval" cx="35.8" cy="53.5" r="1"></circle>
                            <circle id="Oval" cx="41.3" cy="29.5" r="1"></circle>
                            <circle id="Oval" cx="26.3" cy="44" r="1"></circle>
                            <circle id="Oval" cx="34.8" cy="24" r="1"></circle>
                            <circle id="Oval" cx="19.3" cy="26.5" r="1"></circle>
                            <circle id="Oval" cx="28.3" cy="17.5" r="1"></circle>
                            <circle id="Oval" cx="17.3" cy="14.5" r="1"></circle>
                            <circle id="Oval" cx="23.8" cy="12" r="1"></circle>
                            <circle id="Oval" cx="30.8" cy="0.5" r="1"></circle>
                            <circle id="Oval" cx="30.3" cy="6" r="1"></circle>
                            <circle id="Oval" cx="19.3" cy="4.2" r="1"></circle>
                            <circle id="Oval" cx="16.5" cy="6.5" r="1"></circle>
                            <circle id="Oval" cx="6.3" cy="12.8" r="1"></circle>
                            <circle id="Oval" cx="0.5" cy="7.8" r="1"></circle>
                        </g>
                        <g id="Group" opacity="0.503417969" transform="translate(2.000000, 2.000000)"></g>
                        <circle id="Oval" fill="#FFFFFF" opacity="0.0182059152" cx="32.3" cy="66.5" r="1.5"></circle>
                        <circle id="Oval" fill="#FFFFFF" opacity="0.0182059152" cx="68.3" cy="47.5" r="1.5"></circle>
                        <circle id="Oval" fill="#FFFFFF" opacity="0.0182059152" cx="78.3" cy="27" r="1.5"></circle>
                        <circle id="Oval" fill="#FFFFFF" opacity="0.0182059152" cx="71.5" cy="31" r="1.5"></circle>
                        <circle id="Oval" fill="#FFFFFF" opacity="0.0182059152" cx="55.3" cy="33.5" r="1.5"></circle>
                        <circle id="Oval" fill="#FFFFFF" opacity="0.0182059152" cx="94.3" cy="16.5" r="1.5"></circle>
                        <circle id="Oval" fill="#FFFFFF" opacity="0.0182059152" cx="102.3" cy="19.5" r="1.5"></circle>
                        <circle id="Oval" fill="#FFFFFF" opacity="0.0182059152" cx="99.3" cy="23.5" r="1.5"></circle>
                        <circle id="Oval" fill="#FFFFFF" opacity="0.0182059152" cx="79.3" cy="39.5" r="1.5"></circle>
                        <circle id="Oval" fill="#FFFFFF" opacity="0.0182059152" cx="88.3" cy="49.5" r="1.5"></circle>
                        <circle id="Oval" fill="#FFFFFF" opacity="0.0182059152" cx="80.3" cy="54.5" r="1.5"></circle>
                        <circle id="Oval" fill="#FFFFFF" opacity="0.0182059152" cx="79.3" cy="61.5" r="1.5"></circle>
                        <circle id="Oval" fill="#FFFFFF" opacity="0.0182059152" cx="72.5" cy="73.5" r="1.5"></circle>
                        <circle id="Oval" fill="#FFFFFF" opacity="0.0182059152" cx="64.3" cy="79.5" r="1.5"></circle>
                        <circle id="Oval" fill="#FFFFFF" opacity="0.0182059152" cx="67.5" cy="70.5" r="1.5"></circle>
                        <circle id="Oval" fill="#FFFFFF" opacity="0.0182059152" cx="69.3" cy="58.5" r="1.5"></circle>
                        <circle id="Oval" fill="#FFFFFF" opacity="0.0182059152" cx="58.8" cy="62.5" r="1.5"></circle>
                        <circle id="Oval" fill="#FFFFFF" opacity="0.0182059152" cx="56.8" cy="53" r="1.5"></circle>
                        <circle id="Oval" fill="#FFFFFF" opacity="0.0182059152" cx="46.8" cy="60" r="1.5"></circle>
                        <circle id="Oval" fill="#FFFFFF" opacity="0.0182059152" cx="46.3" cy="70" r="1.5"></circle>
                        <circle id="Oval" fill="#FFFFFF" opacity="0.0182059152" cx="28.3" cy="70.5" r="1.5"></circle>
                        <circle id="Oval" fill="#FFFFFF" opacity="0.0182059152" cx="36.8" cy="54.5" r="1.5"></circle>
                        <circle id="Oval" fill="#FFFFFF" opacity="0.0182059152" cx="42.3" cy="30.5" r="1.5"></circle>
                        <circle id="Oval" fill="#FFFFFF" opacity="0.0182059152" cx="27.3" cy="45" r="1.5"></circle>
                        <circle id="Oval" fill="#FFFFFF" opacity="0.0182059152" cx="35.8" cy="25" r="1.5"></circle>
                        <circle id="Oval" fill="#FFFFFF" opacity="0.0182059152" cx="20.3" cy="27.5" r="1.5"></circle>
                        <circle id="Oval" fill="#FFFFFF" opacity="0.0182059152" cx="29.3" cy="18.5" r="1.5"></circle>
                        <circle id="Oval" fill="#FFFFFF" opacity="0.0182059152" cx="18.3" cy="15.5" r="1.5"></circle>
                        <circle id="Oval" fill="#FFFFFF" opacity="0.0182059152" cx="24.8" cy="13" r="1.5"></circle>
                        <circle id="Oval" fill="#FFFFFF" opacity="0.0182059152" cx="31.8" cy="1.5" r="1.5"></circle>
                        <circle id="Oval" fill="#FFFFFF" opacity="0.0182059152" cx="31.3" cy="7" r="1.5"></circle>
                        <circle id="Oval" fill="#FFFFFF" opacity="0.0182059152" cx="20.3" cy="5.2" r="1.5"></circle>
                        <circle id="Oval" fill="#FFFFFF" opacity="0.0182059152" cx="17.5" cy="7.5" r="1.5"></circle>
                        <circle id="Oval" fill="#FFFFFF" opacity="0.0182059152" cx="7.3" cy="13.8" r="1.5"></circle>
                        <circle id="Oval" fill="#FFFFFF" opacity="0.0182059152" cx="1.5" cy="8.8" r="1.5"></circle>
                    </g>
                </g>
                <circle id="Oval" fill="#FFFFFF" opacity="0.0599423363" cx="32.3" cy="66.5" r="1.5"></circle>
                <circle id="Oval" fill="#FFFFFF" opacity="0.0599423363" cx="68.3" cy="47.5" r="1.5"></circle>
                <circle id="Oval" fill="#FFFFFF" opacity="0.0599423363" cx="78.3" cy="27" r="1.5"></circle>
                <circle id="Oval" fill="#FFFFFF" opacity="0.0599423363" cx="71.5" cy="31" r="1.5"></circle>
                <circle id="Oval" fill="#FFFFFF" opacity="0.0599423363" cx="55.3" cy="33.5" r="1.5"></circle>
                <circle id="Oval" fill="#FFFFFF" opacity="0.0599423363" cx="94.3" cy="16.5" r="1.5"></circle>
                <circle id="Oval" fill="#FFFFFF" opacity="0.0599423363" cx="102.3" cy="19.5" r="1.5"></circle>
                <circle id="Oval" fill="#FFFFFF" opacity="0.0599423363" cx="99.3" cy="23.5" r="1.5"></circle>
                <circle id="Oval" fill="#FFFFFF" opacity="0.0599423363" cx="79.3" cy="39.5" r="1.5"></circle>
                <circle id="Oval" fill="#FFFFFF" opacity="0.0599423363" cx="88.3" cy="49.5" r="1.5"></circle>
                <circle id="Oval" fill="#FFFFFF" opacity="0.0599423363" cx="80.3" cy="54.5" r="1.5"></circle>
                <circle id="Oval" fill="#FFFFFF" opacity="0.0599423363" cx="79.3" cy="61.5" r="1.5"></circle>
                <circle id="Oval" fill="#FFFFFF" opacity="0.0599423363" cx="72.5" cy="73.5" r="1.5"></circle>
                <circle id="Oval" fill="#FFFFFF" opacity="0.0599423363" cx="64.3" cy="79.5" r="1.5"></circle>
                <circle id="Oval" fill="#FFFFFF" opacity="0.0599423363" cx="67.5" cy="70.5" r="1.5"></circle>
                <circle id="Oval" fill="#FFFFFF" opacity="0.0599423363" cx="69.3" cy="58.5" r="1.5"></circle>
                <circle id="Oval" fill="#FFFFFF" opacity="0.0599423363" cx="58.8" cy="62.5" r="1.5"></circle>
                <circle id="Oval" fill="#FFFFFF" opacity="0.0599423363" cx="56.8" cy="53" r="1.5"></circle>
                <circle id="Oval" fill="#FFFFFF" opacity="0.0599423363" cx="46.8" cy="60" r="1.5"></circle>
                <circle id="Oval" fill="#FFFFFF" opacity="0.0599423363" cx="46.3" cy="70" r="1.5"></circle>
                <circle id="Oval" fill="#FFFFFF" opacity="0.0599423363" cx="28.3" cy="70.5" r="1.5"></circle>
                <circle id="Oval" fill="#FFFFFF" opacity="0.0599423363" cx="36.8" cy="54.5" r="1.5"></circle>
                <circle id="Oval" fill="#FFFFFF" opacity="0.0599423363" cx="42.3" cy="30.5" r="1.5"></circle>
                <circle id="Oval" fill="#FFFFFF" opacity="0.0599423363" cx="27.3" cy="45" r="1.5"></circle>
                <circle id="Oval" fill="#FFFFFF" opacity="0.0599423363" cx="35.8" cy="25" r="1.5"></circle>
                <circle id="Oval" fill="#FFFFFF" opacity="0.0599423363" cx="20.3" cy="27.5" r="1.5"></circle>
                <circle id="Oval" fill="#FFFFFF" opacity="0.0599423363" cx="29.3" cy="18.5" r="1.5"></circle>
                <circle id="Oval" fill="#FFFFFF" opacity="0.0599423363" cx="18.3" cy="15.5" r="1.5"></circle>
                <circle id="Oval" fill="#FFFFFF" opacity="0.0599423363" cx="24.8" cy="13" r="1.5"></circle>
                <circle id="Oval" fill="#FFFFFF" opacity="0.0599423363" cx="31.8" cy="1.5" r="1.5"></circle>
                <circle id="Oval" fill="#FFFFFF" opacity="0.0599423363" cx="31.3" cy="7" r="1.5"></circle>
                <circle id="Oval" fill="#FFFFFF" opacity="0.0599423363" cx="20.3" cy="5.2" r="1.5"></circle>
                <circle id="Oval" fill="#FFFFFF" opacity="0.0599423363" cx="17.5" cy="7.5" r="1.5"></circle>
                <circle id="Oval" fill="#FFFFFF" opacity="0.0599423363" cx="7.3" cy="13.8" r="1.5"></circle>
                <circle id="Oval" fill="#FFFFFF" opacity="0.0599423363" cx="1.5" cy="8.8" r="1.5"></circle>
                <circle id="Oval" fill="#FFFFFF" opacity="0.0599423363" cx="32.3" cy="66.5" r="1.5"></circle>
                <circle id="Oval" fill="#FFFFFF" opacity="0.0599423363" cx="68.3" cy="47.5" r="1.5"></circle>
                <circle id="Oval" fill="#FFFFFF" opacity="0.0599423363" cx="78.3" cy="27" r="1.5"></circle>
                <circle id="Oval" fill="#FFFFFF" opacity="0.0599423363" cx="71.5" cy="31" r="1.5"></circle>
                <circle id="Oval" fill="#FFFFFF" opacity="0.0599423363" cx="55.3" cy="33.5" r="1.5"></circle>
                <circle id="Oval" fill="#FFFFFF" opacity="0.0599423363" cx="94.3" cy="16.5" r="1.5"></circle>
                <circle id="Oval" fill="#FFFFFF" opacity="0.0599423363" cx="102.3" cy="19.5" r="1.5"></circle>
                <circle id="Oval" fill="#FFFFFF" opacity="0.0599423363" cx="99.3" cy="23.5" r="1.5"></circle>
                <circle id="Oval" fill="#FFFFFF" opacity="0.0599423363" cx="79.3" cy="39.5" r="1.5"></circle>
                <circle id="Oval" fill="#FFFFFF" opacity="0.0599423363" cx="88.3" cy="49.5" r="1.5"></circle>
                <circle id="Oval" fill="#FFFFFF" opacity="0.0599423363" cx="80.3" cy="54.5" r="1.5"></circle>
                <circle id="Oval" fill="#FFFFFF" opacity="0.0599423363" cx="79.3" cy="61.5" r="1.5"></circle>
                <circle id="Oval" fill="#FFFFFF" opacity="0.0599423363" cx="72.5" cy="73.5" r="1.5"></circle>
                <circle id="Oval" fill="#FFFFFF" opacity="0.0599423363" cx="64.3" cy="79.5" r="1.5"></circle>
                <circle id="Oval" fill="#FFFFFF" opacity="0.0599423363" cx="67.5" cy="70.5" r="1.5"></circle>
                <circle id="Oval" fill="#FFFFFF" opacity="0.0599423363" cx="69.3" cy="58.5" r="1.5"></circle>
                <circle id="Oval" fill="#FFFFFF" opacity="0.0599423363" cx="58.8" cy="62.5" r="1.5"></circle>
                <circle id="Oval" fill="#FFFFFF" opacity="0.0599423363" cx="56.8" cy="53" r="1.5"></circle>
                <circle id="Oval" fill="#FFFFFF" opacity="0.0599423363" cx="46.8" cy="60" r="1.5"></circle>
                <circle id="Oval" fill="#FFFFFF" opacity="0.0599423363" cx="46.3" cy="70" r="1.5"></circle>
                <circle id="Oval" fill="#FFFFFF" opacity="0.0599423363" cx="28.3" cy="70.5" r="1.5"></circle>
                <circle id="Oval" fill="#FFFFFF" opacity="0.0599423363" cx="36.8" cy="54.5" r="1.5"></circle>
                <circle id="Oval" fill="#FFFFFF" opacity="0.0599423363" cx="42.3" cy="30.5" r="1.5"></circle>
                <circle id="Oval" fill="#FFFFFF" opacity="0.0599423363" cx="27.3" cy="45" r="1.5"></circle>
                <circle id="Oval" fill="#FFFFFF" opacity="0.0599423363" cx="35.8" cy="25" r="1.5"></circle>
                <circle id="Oval" fill="#FFFFFF" opacity="0.0599423363" cx="20.3" cy="27.5" r="1.5"></circle>
                <circle id="Oval" fill="#FFFFFF" opacity="0.0599423363" cx="29.3" cy="18.5" r="1.5"></circle>
                <circle id="Oval" fill="#FFFFFF" opacity="0.0599423363" cx="18.3" cy="15.5" r="1.5"></circle>
                <circle id="Oval" fill="#FFFFFF" opacity="0.0599423363" cx="24.8" cy="13" r="1.5"></circle>
                <circle id="Oval" fill="#FFFFFF" opacity="0.0599423363" cx="31.8" cy="1.5" r="1.5"></circle>
                <circle id="Oval" fill="#FFFFFF" opacity="0.0599423363" cx="31.3" cy="7" r="1.5"></circle>
                <circle id="Oval" fill="#FFFFFF" opacity="0.0599423363" cx="20.3" cy="5.2" r="1.5"></circle>
                <circle id="Oval" fill="#FFFFFF" opacity="0.0599423363" cx="17.5" cy="7.5" r="1.5"></circle>
                <circle id="Oval" fill="#FFFFFF" opacity="0.0599423363" cx="7.3" cy="13.8" r="1.5"></circle>
                <circle id="Oval" fill="#FFFFFF" opacity="0.0599423363" cx="1.5" cy="8.8" r="1.5"></circle>
                <circle id="Oval" fill="#FFFFFF" opacity="0.0599423363" cx="32.3" cy="66.5" r="1.5"></circle>
                <circle id="Oval" fill="#FFFFFF" opacity="0.0599423363" cx="68.3" cy="47.5" r="1.5"></circle>
                <circle id="Oval" fill="#FFFFFF" opacity="0.0599423363" cx="78.3" cy="27" r="1.5"></circle>
                <circle id="Oval" fill="#FFFFFF" opacity="0.0599423363" cx="71.5" cy="31" r="1.5"></circle>
                <circle id="Oval" fill="#FFFFFF" opacity="0.0599423363" cx="55.3" cy="33.5" r="1.5"></circle>
                <circle id="Oval" fill="#FFFFFF" opacity="0.0599423363" cx="94.3" cy="16.5" r="1.5"></circle>
                <circle id="Oval" fill="#FFFFFF" opacity="0.0599423363" cx="102.3" cy="19.5" r="1.5"></circle>
                <circle id="Oval" fill="#FFFFFF" opacity="0.0599423363" cx="99.3" cy="23.5" r="1.5"></circle>
                <circle id="Oval" fill="#FFFFFF" opacity="0.0599423363" cx="79.3" cy="39.5" r="1.5"></circle>
                <circle id="Oval" fill="#FFFFFF" opacity="0.0599423363" cx="88.3" cy="49.5" r="1.5"></circle>
                <circle id="Oval" fill="#FFFFFF" opacity="0.0599423363" cx="80.3" cy="54.5" r="1.5"></circle>
                <circle id="Oval" fill="#FFFFFF" opacity="0.0599423363" cx="79.3" cy="61.5" r="1.5"></circle>
                <circle id="Oval" fill="#FFFFFF" opacity="0.0599423363" cx="72.5" cy="73.5" r="1.5"></circle>
                <circle id="Oval" fill="#FFFFFF" opacity="0.0599423363" cx="64.3" cy="79.5" r="1.5"></circle>
                <circle id="Oval" fill="#FFFFFF" opacity="0.0599423363" cx="67.5" cy="70.5" r="1.5"></circle>
                <circle id="Oval" fill="#FFFFFF" opacity="0.0599423363" cx="69.3" cy="58.5" r="1.5"></circle>
                <circle id="Oval" fill="#FFFFFF" opacity="0.0599423363" cx="58.8" cy="62.5" r="1.5"></circle>
                <circle id="Oval" fill="#FFFFFF" opacity="0.0599423363" cx="56.8" cy="53" r="1.5"></circle>
                <circle id="Oval" fill="#FFFFFF" opacity="0.0599423363" cx="46.8" cy="60" r="1.5"></circle>
                <circle id="Oval" fill="#FFFFFF" opacity="0.0599423363" cx="46.3" cy="70" r="1.5"></circle>
                <circle id="Oval" fill="#FFFFFF" opacity="0.0599423363" cx="28.3" cy="70.5" r="1.5"></circle>
                <circle id="Oval" fill="#FFFFFF" opacity="0.0599423363" cx="36.8" cy="54.5" r="1.5"></circle>
                <circle id="Oval" fill="#FFFFFF" opacity="0.0599423363" cx="42.3" cy="30.5" r="1.5"></circle>
                <circle id="Oval" fill="#FFFFFF" opacity="0.0599423363" cx="27.3" cy="45" r="1.5"></circle>
                <circle id="Oval" fill="#FFFFFF" opacity="0.0599423363" cx="35.8" cy="25" r="1.5"></circle>
                <circle id="Oval" fill="#FFFFFF" opacity="0.0599423363" cx="20.3" cy="27.5" r="1.5"></circle>
                <circle id="Oval" fill="#FFFFFF" opacity="0.0599423363" cx="29.3" cy="18.5" r="1.5"></circle>
                <circle id="Oval" fill="#FFFFFF" opacity="0.0599423363" cx="18.3" cy="15.5" r="1.5"></circle>
                <circle id="Oval" fill="#FFFFFF" opacity="0.0599423363" cx="24.8" cy="13" r="1.5"></circle>
                <circle id="Oval" fill="#FFFFFF" opacity="0.0599423363" cx="31.8" cy="1.5" r="1.5"></circle>
                <circle id="Oval" fill="#FFFFFF" opacity="0.0599423363" cx="31.3" cy="7" r="1.5"></circle>
                <circle id="Oval" fill="#FFFFFF" opacity="0.0599423363" cx="20.3" cy="5.2" r="1.5"></circle>
                <circle id="Oval" fill="#FFFFFF" opacity="0.0599423363" cx="17.5" cy="7.5" r="1.5"></circle>
                <circle id="Oval" fill="#FFFFFF" opacity="0.0599423363" cx="7.3" cy="13.8" r="1.5"></circle>
                <circle id="Oval" fill="#FFFFFF" opacity="0.0599423363" cx="1.5" cy="8.8" r="1.5"></circle>
            </g>
        </g>
    </g>
</svg>